<?xml version="1.0" standalone="no"?>
<!DOCTYPE svg PUBLIC "-//W3C//DTD SVG 20010904//EN"
 "http://www.w3.org/TR/2001/REC-SVG-20010904/DTD/svg10.dtd">
<svg version="1.0" xmlns="http://www.w3.org/2000/svg"
 width="512.000000pt" height="512.000000pt" viewBox="0 0 512.000000 512.000000"
 preserveAspectRatio="xMidYMid meet">

<g transform="translate(0.000000,512.000000) scale(0.100000,-0.100000)"
fill="#000000" stroke="none">
<path d="M2448 5041 c-14 -11 -164 -205 -334 -432 -276 -368 -309 -416 -309
-449 0 -33 31 -78 283 -414 155 -207 282 -380 282 -386 0 -6 -127 -179 -282
-386 -252 -336 -283 -381 -283 -414 0 -33 31 -78 283 -414 155 -207 282 -380
282 -386 0 -6 -127 -179 -282 -386 -252 -336 -283 -381 -283 -414 0 -33 33
-81 309 -449 170 -227 320 -421 334 -432 24 -19 51 -19 1309 -19 1396 0 1325
-3 1351 55 17 38 17 4852 0 4890 -26 58 45 55 -1351 55 -1258 0 -1285 0 -1309
-19z m2472 -881 l0 -700 -1184 0 -1184 0 -262 350 -262 350 262 350 262 350
1184 0 1184 0 0 -700z m0 -1600 l0 -700 -1184 0 -1184 0 -262 350 -262 350
262 350 262 350 1184 0 1184 0 0 -700z m0 -1600 l0 -700 -1184 0 -1184 0 -262
350 -262 350 262 350 262 350 1184 0 1184 0 0 -700z"/>
<path d="M3515 4651 c-11 -5 -28 -18 -39 -29 -10 -12 -83 -191 -163 -399 -188
-495 -176 -456 -159 -498 20 -47 57 -69 103 -62 50 8 68 30 102 117 l28 75
173 0 173 0 28 -75 c34 -87 52 -109 102 -117 67 -10 127 58 108 123 -5 16 -75
205 -156 419 -159 424 -169 443 -241 451 -21 2 -48 0 -59 -5z m93 -464 c23
-63 42 -117 42 -120 0 -4 -41 -7 -91 -7 -67 0 -90 3 -87 13 9 34 84 227 88
227 3 0 24 -51 48 -113z"/>
<path d="M3288 3031 l-33 -29 0 -442 0 -442 34 -30 33 -30 192 4 c179 3 194 5
241 27 63 32 131 99 158 159 33 72 31 189 -5 262 -15 31 -40 68 -56 83 l-30
28 21 42 c29 58 29 165 0 229 -29 63 -93 123 -159 148 -46 17 -78 20 -209 20
l-155 0 -32 -29z m353 -200 c17 -18 29 -40 29 -56 0 -16 -12 -38 -29 -56 -28
-27 -34 -29 -110 -29 l-81 0 0 85 0 85 81 0 c76 0 82 -2 110 -29z m39 -356
c56 -29 75 -101 43 -156 -27 -45 -68 -59 -177 -59 l-96 0 0 115 0 115 100 0
c71 0 110 -5 130 -15z"/>
<path d="M3416 1444 c-117 -28 -239 -115 -303 -218 -101 -159 -98 -388 7 -541
168 -245 504 -299 705 -114 56 52 71 87 55 133 -14 42 -48 66 -94 66 -26 0
-47 -10 -86 -44 -29 -24 -71 -49 -96 -56 -95 -27 -216 10 -287 89 -63 70 -72
95 -72 201 0 73 4 103 18 128 30 55 88 112 141 140 43 22 64 27 132 27 72 0
87 -3 144 -33 72 -38 112 -38 148 1 56 59 34 127 -56 175 -113 60 -233 76
-356 46z"/>
<path d="M770 4129 c-313 -47 -595 -275 -711 -573 -60 -155 -74 -351 -32 -447
72 -163 268 -236 428 -161 110 53 170 144 184 280 13 125 53 193 140 237 111
56 222 39 306 -48 56 -58 75 -105 75 -188 0 -98 -67 -198 -157 -235 -18 -8
-61 -17 -96 -20 -145 -13 -234 -69 -289 -181 l-33 -68 -3 -353 c-3 -382 0
-419 53 -502 74 -118 234 -172 374 -125 64 21 144 92 179 159 27 50 27 55 30
268 l3 217 83 40 c223 111 397 322 468 566 20 69 23 103 23 240 0 137 -3 171
-23 240 -93 322 -347 563 -672 640 -84 19 -247 27 -330 14z m305 -214 c33 -8
98 -34 145 -57 67 -33 101 -58 170 -127 147 -148 201 -269 208 -466 5 -146
-11 -224 -70 -345 -34 -69 -59 -102 -133 -175 -93 -94 -172 -144 -283 -180
-90 -29 -92 -37 -92 -315 0 -167 -4 -242 -13 -259 -44 -87 -176 -83 -213 6
-21 50 -20 662 1 707 18 37 62 66 102 66 48 0 157 27 208 51 79 37 169 130
213 217 37 75 37 77 37 197 0 119 0 122 -37 195 -143 287 -496 355 -730 141
-86 -79 -148 -215 -148 -327 0 -73 -49 -124 -120 -124 -48 0 -85 22 -106 61
-33 65 -5 229 64 369 77 158 223 288 390 346 38 13 94 28 123 33 69 13 207 6
284 -14z"/>
<path d="M795 1605 c-74 -28 -137 -85 -175 -159 -31 -61 -35 -77 -34 -145 0
-91 22 -148 84 -215 93 -101 239 -131 361 -74 196 90 251 339 110 500 -62 70
-130 101 -226 105 -53 2 -94 -2 -120 -12z m165 -200 c37 -19 60 -62 60 -111 0
-28 -8 -44 -33 -69 -42 -42 -77 -51 -124 -34 -50 20 -78 60 -78 116 0 39 5 49
37 79 43 38 88 45 138 19z"/>
</g>
</svg>
